<svg xmlns="http://www.w3.org/2000/svg" width="26.94" height="34.09"><path d="M13.62.02L13.47 0 0 1.41v24.66l13.47 8.02L26.9 26.1l.05-.03V1.42L13.62.01zm11.4 12.1L13.49 5.34v-.1l-.08.05-.1-.06v.11L1.94 12.12V3.15l11.54-1.21 11.55 1.2v8.99zM13.4 6.8l11.52 6.71-4.48 2.64-7.09-4.22-.01 1.41 5.9 3.52-.86.5-5.03-2.99-.01 1.42 3.82 2.27-.78.52-3.03-1.78-.01 1.41 1.85 1.1-1.8 1.07-11.36-6.75L13.41 6.8zM1.93 15.13l11.4 6.79.02 1.04-7.94-4.73-.02 1.42 7.98 4.8.02 1.07-7.97-4.74-.01 1.41 8.02 4.83.04.02 8.15-4.87-.02-5.18 3.42-2.03v10.02l-11.55 6.87-11.54-6.87v-9.85z"/></svg>