<svg xmlns="http://www.w3.org/2000/svg" width="101.61" height="34.06"><path d="M19.14 21.5c-.09-2.69-.51-5.35-.48-8.04.03-2.17.39-4.41-.36-6.5l.14-.7c.2-1.05-3.27-.5-3.81.46-.35.28-.52.61-.38.96l.1.26a78.3 78.3 0 0 1-2.62 9.4c-.4 1.2-.88 2.36-1.3 3.54-.58-1.1-1.16-2.2-1.64-3.38-1.37-3.43-2.61-6.9-4.28-10.2.19-1.53-3.2-1.37-3.88.03-.8 1.7-.7 3.4-.44 5.21.3 2.05.36 4.05.38 6.12.05 3.97.36 7.94.42 11.91-.36.4-.46.89-.1 1.38.17.22.37.38.58.55.9.72 3.5.1 3.5-1.27-.02-4.13-.32-8.24-.43-12.36l-.02-1.21.17.43c.64 1.6 1.31 3.17 2.19 4.66.86 1.48 1.3 3.06 1.8 4.67-.19.22-.3.47-.23.71-.04.18.07.3.25.36.64.55 1.84.28 2.5 0 .3-.13.57-.27.83-.43.35-.21.89-.68.73-1.16l-.09-.28c.47-1.27.71-2.59.97-3.93.27-1.42.78-2.78 1.3-4.13l.15 1.86c.2 2.55.03 5.07 0 7.62 0 .85.06 1.63.23 2.46.06.35.36 1.81.28 1.89-.61.56-.44 1.26.38 1.44.92.2 2.08-.1 2.77-.75 1.2-1.1.63-2.84.36-4.24-.45-2.34.1-4.96.03-7.34zm8.36.67c-.08-1.99-.77-3.86-.78-5.87 0-2.3.19-4.6-.15-6.89-.1-.72-4.06.1-3.92 1.05.31 2.11.2 4.23.16 6.36-.04 2.04.47 3.9.73 5.9.27 2.05-.08 4.16.15 6.21.11.97.75 2.75.09 3.58-.42.54 1.47.35 1.55.33.77-.14 1.8-.4 2.3-1.04.66-.83.2-2.42.06-3.36-.32-2.05-.11-4.2-.2-6.27zm16.33-3.32c-2.06-2.78-5.9-.78-8.56-1.54-1.38-.4-1.4-2.27-1.4-3.4 0-1.42-.1-2.73-.27-4.14-.12-1.05-.02-2.12.75-2.9.14-.15.86-.34.8-.34.36-.07.68-.08 1.08-.1 1.54-.06 4.6.23 4.01 2.49-.26 1 3.6.43 3.88-.64 1.21-4.6-7.28-3.72-9.68-3.08-2.21.59-4.65 1.85-4.78 4.4-.06 1.22.27 2.38.33 3.59.06 1.39-.2 2.77.28 4.12 1.09 2.98 5.52 1.57 7.78 1.74 3.85.29 2.7 5.47 2.75 7.88.03 1.3 1.18 3.43.21 4.51-.6.66-1.98.7-2.8.77-.8.07-2.2.31-2.73-.46-1-1.42.09-3.8-.12-5.43-.13-.92-4.07-.1-3.92 1.05.34 2.63-1.4 6.15 2.4 6.6 2.44.29 5.2-.16 7.5-.93 1.2-.4 2.3-.94 3.24-1.8 1.04-.93.7-2.34.42-3.54-.68-2.92.73-6.28-1.17-8.85zm17.33-.19c-.13-3.78-.7-7.51-.71-11.3 0-1.97-3.96-1.3-3.96.35.02 3.6.5 7.16.68 10.76l.02.22c-1.95-.02-3.9.18-5.86.25.2-4.63-.6-9.23-.43-13.86.02-.58-3.88-.09-3.92 1.05-.17 4.48.59 8.92.45 13.4-.06 2.13-.24 4.26-.25 6.4-.01 1.09.17 2.18.32 3.26.15 1 .49 2.33.19 3.32-.24.77 3.56.29 3.86-.7.54-1.78-.22-4.04-.4-5.84-.18-1.72-.05-3.5.08-5.25 2.03-.13 4.06-.3 6.08 0 .09 1.37.2 2.75.32 4.13.1 1.15.18 2.31.2 3.47.01 1.02.14 2.5-.23 3.46-.77 2.06 3.15 1.9 3.73.37.7-1.87.5-4.2.38-6.17-.15-2.44-.48-4.87-.55-7.32zm16.93 4.48c-.94-2.76-2.38-5.18-3.62-7.8 1-1.95 2.02-3.9 2.93-5.89.83-1.8 1.45-3.82 3.08-5.1.58-.44.55-.89-.25-.94-.88-.06-2.07.19-2.77.74a10.74 10.74 0 0 0-3.2 4.27 160.3 160.3 0 0 1-2.92 6.07l-.22.45c-.5.31-.79.76-.64 1.26-.8 1.56-1.6 3.12-2.5 4.61-.3-5.53-.95-11.06-1.15-16.6-.04-1.27-3.97-.48-3.92 1.05.25 6.87 1.22 13.72 1.29 20.59l-.05.05c-.3.3-.19.5.05.6 0 1.75-.05 3.5-.2 5.25-.48.75.46 1.14 1.08 1.14h.1c.73 0 2.62-.35 2.71-1.36.2-2.1.25-4.2.24-6.3a31.33 31.33 0 0 0 4.05-5.63 29.45 29.45 0 0 1 1.99 4.59c.86 2.74 2.3 5.26 3.13 8.01.54 1.8 4.46.74 3.92-1.05-.83-2.75-2.2-5.3-3.13-8.01zm23.5-4.64c-.21-.83-1.37-.85-2.27-.77l-.04-1c-.12-2.67-.16-5.38-.39-8.04-.2-2.45-1.58-3.33-3.97-3.24-2.42.09-5.23.52-7.48 1.4-2.61 1.01-4.06 2.93-4.56 5.68-.55 3.01.24 6.22.37 9.25.16 3.5.07 7.01.06 10.52 0 .57 3.92.03 3.92-1.05 0-2.78.04-5.55 0-8.33a52.2 52.2 0 0 0-.1-2.44c1.37-.6 3.69 0 5.05.14 1.1.1 2.17-.17 3.24-.3.02 2.32.1 4.64.2 6.95.05 1.18.48 3.53-.35 4.5-.44.53 1.48.35 1.56.34.79-.15 1.76-.4 2.3-1.04.95-1.12.45-3.8.4-5.13-.08-1.9-.1-3.82-.14-5.74 1.15-.14 2.42-.85 2.2-1.7zm-14.62-.15c-.1-1.24-.22-2.49-.3-3.74-.16-2.33.12-5.59 2.29-7 .58-.38 1.67-.32 2.35-.44.97-.18 1.96-.39 2.83.2 1.21.8.91 3.65.91 4.86 0 2 .21 4 .31 6-.55.06-1.1.1-1.68.08-2.29-.05-4.54-.41-6.7.04zM24.1 6.7a3.16 3.16 0 0 0 1.48-.52l.26-.22c.52-.34.97-.83.73-1.36-.5-1.1-.42-2.23-.42-3.41 0-.96-.96-1.25-1.78-1.18-.72.06-2.17.58-2.17 1.52 0 1-.07 2.02.1 3-.04.1-.07.23-.1.35a.7.7 0 0 0 .14.59v.13l.02.34c.07.23.22.4.43.53.39.23.88.27 1.32.23z"/></svg>