<svg xmlns="http://www.w3.org/2000/svg" width="34.4" height="34.4"><path fill="#63d1bb" d="M.3 14a17.2 17.2 0 0 0 0 6.4l4.1-3.2L.3 14zM24.4 1.7A17.2 17.2 0 0 0 9.1 2l7.6 5.6 7.7-6zm9.5 11.6L29.1 17l5 3.7c.4-2.4.4-5-.2-7.4zM9.2 32.4a17.2 17.2 0 0 0 15.7.1l-8-6-7.7 6zM8 14.4L1.7 9.8l-.8 2 5.3 4 1.7-1.4zm10.7 10.7l8.3 6.2a17.2 17.2 0 0 0 1.8-1.3l-8.4-6.3-1.7 1.4zm-7.2-13.4L4 6.2a17 17 0 0 0-1.3 1.7l7 5.2 1.7-1.4zm10.7 10.7l8 6c.6-.5 1-1 1.4-1.7L23.8 21l-1.7 1.4zM14.9 9L7.2 3.2a17.7 17.7 0 0 0-1.7 1.4l7.7 5.7L14.9 9zm10.7 10.6l7 5.3.8-2-6-4.6-1.8 1.3zm.8-16.9L1 22.7l.8 2L28.2 4a17 17 0 0 0-1.8-1.3zm4.3 4l-.9-1.2-27 21A17.1 17.1 0 0 0 4 28.4L31 7.2c0-.2-.2-.4-.4-.6zM32.3 9L5.6 29.8c.5.5 1 1 1.7 1.4l26-20.2-1-2z"/></svg>