<svg xmlns="http://www.w3.org/2000/svg" xmlns:xlink="http://www.w3.org/1999/xlink"><symbol id="icon-cart" viewBox="264.205 370.961 20.294 18.849"><path d="M283.75 378.19h-3.151l-3.407-6.814a.75.75 0 1 0-1.341.671l3.071 6.143h-9.138l3.072-6.143a.75.75 0 0 0-1.341-.671l-3.407 6.814h-3.151a.75.75 0 0 0 0 1.5h.157l.855 2.991a.737.737 0 0 0-.316.595c0 .396.309.71.697.739l1.656 5.795h12.697l1.656-5.795a.745.745 0 0 0 .698-.739.738.738 0 0 0-.316-.596l.854-2.991h.157a.75.75 0 1 0-.002-1.499zm-4.181 10.121h-10.433l-1.224-4.284h12.881l-1.224 4.284zm1.653-5.785h-13.739l-.81-2.836h15.359l-.81 2.836z"/></symbol><symbol id="icon-fb" viewBox="56.519 49.996 14.962 27.718"><path d="M68.181 55.188c1.026.029 1.993 0 2.681-.3.391-.818.556-1.854.619-2.989-.19-.015-.062-.337-.207-.399-.029-.202-.278-.195-.309-.398-.277-.165-.457-.422-.723-.598-.727-.162-1.44-.335-2.164-.499-.849.044-1.895-.103-2.58.1-2.619-.04-3.997 1.12-5.259 2.392-.023.078-.003.197-.105.199-.574 1.587-.125 3.621-.204 5.581.099.436.107.958.204 1.395-.998.296-2.212.387-3.402.499-.317.324-.178 1.089-.206 1.693.085.583.278 1.06.413 1.595.211.193.596.396.825.498.065.029.071.082.103.1.506.268 1.451.008 2.268.1-.136 1.978.256 3.915 0 5.68.007.327.295.382.208.798-.001.963-.067 1.99.208 2.69-.287.455-.497.982-.415 1.794.122.016.114.157.105.299-.075.47.643.175.515.698.162.456-.428.184-.413.498v.896c.53.285 1.462.182 2.268.199.908-.419 2.188-.479 2.785-1.196.459.235.916-.014 1.238-.199-.018-.315.273-.333.205-.698-.004-.328-.173-.496-.103-.896v-2.89c-.206-2.293-.048-4.938-.309-7.176.888-.105 1.917-.075 2.578-.398.357-.451.377-1.23.516-1.895.177-.226.221-.583.206-.996.19-.213.068-.729.104-1.096-.141-.595-.168-1.3-.825-1.39-.884-.235-2.043.595-2.991.299.049-1.134-.293-2.342 0-3.388.746-.181 1.446-.4 2.166-.602zm-3.818 4.783c.117.254.254.486.414.698.079.022.203.003.205.101a10.319 10.319 0 0 0 3.096-.299c0 .998-.271 1.733-.518 2.492-.662.045-1.467.3-1.958.198-.276.165-.372.506-.62.698-.049.441.142.495 0 .797-.201.137-.055.611-.205.796v1.496c.085.281-.146.258-.104.497v3.488c-.085.281.146.258.104.498v2.989c.063.271-.132.791.103.896-.07.364-.412-.021-.824.1-.528.122-.926.369-1.548.4.117-.353.32-.622.311-1.097.049-.381-.365-.312-.516-.49.193-.644.562-1.117.722-1.793.197-.515.714-1.298.31-1.794-.522-.105-.521.293-.826.398-.022.077-.002.196-.103.199-.023.077-.003.196-.103.199.01.12-.151.062 0 0 .022-.078.002-.197.103-.199.023-.077.002-.197.103-.199v-.299c.368-.575.67-1.214.826-1.993.191-.28.283-.656.412-.997.156-.262.34-.869.104-1.195-.517.033-.796.295-.93.697-.32-.189.161-.434.104-.697.138-.231.169-.566.309-.797.202-.413.564-1.304 0-1.596-.438-.023-.612.207-.723.498-.214.191-.43.383-.516.698-.373-.07-.143-.727-.206-1.097-.067-.52.122-.899 0-1.195-.56-.799-2.026-.105-3.197-.299-.108-.307-.222-.984-.104-1.195 1.045-.088 2.479.201 3.197-.199.024-.078.003-.197.104-.199.094-.723-.271-1-.515-1.396.232-.806.04-2.02.104-2.989.233-.141.328-.414.515-.598.112-.955.673-1.476.722-2.49-.273.001-.607-.055-.619.199-.302-.114-.382.479-.515.199-.112-.541.246-.626.309-.997.599-.418 1.212-.82 1.856-1.195 1.741-.244 4.648-.449 6.086.198.051.616-.287.854-.207 1.496h-1.546c-1.092.24-1.987.672-2.991.997-.24.066-.276.331-.516.398-.036.396-.225.646-.311.996-.079 1.431.133 2.589.102 3.978z"/></symbol><symbol id="icon-feature-ball"><path fill="#63d1bb" d="M.3 14a17.2 17.2 0 0 0 0 6.4l4.1-3.2L.3 14zM24.4 1.7A17.2 17.2 0 0 0 9.1 2l7.6 5.6 7.7-6zm9.5 11.6L29.1 17l5 3.7c.4-2.4.4-5-.2-7.4zM9.2 32.4a17.2 17.2 0 0 0 15.7.1l-8-6-7.7 6zM8 14.4L1.7 9.8l-.8 2 5.3 4 1.7-1.4zm10.7 10.7l8.3 6.2a17.2 17.2 0 0 0 1.8-1.3l-8.4-6.3-1.7 1.4zm-7.2-13.4L4 6.2a17 17 0 0 0-1.3 1.7l7 5.2 1.7-1.4zm10.7 10.7l8 6c.6-.5 1-1 1.4-1.7L23.8 21l-1.7 1.4zM14.9 9L7.2 3.2a17.7 17.7 0 0 0-1.7 1.4l7.7 5.7L14.9 9zm10.7 10.6l7 5.3.8-2-6-4.6-1.8 1.3zm.8-16.9L1 22.7l.8 2L28.2 4a17 17 0 0 0-1.8-1.3zm4.3 4l-.9-1.2-27 21A17.1 17.1 0 0 0 4 28.4L31 7.2c0-.2-.2-.4-.4-.6zM32.3 9L5.6 29.8c.5.5 1 1 1.7 1.4l26-20.2-1-2z"/></symbol><symbol id="icon-feature-flower" viewBox="8.014 4.35 31.972 37.301"><path fill="#63d1bb" d="M24 41.65c8.827 0 15.986-7.159 15.986-15.986C31.158 25.664 24 32.822 24 41.65zM12.641 20.78a4.442 4.442 0 0 0 4.44 4.441c.932 0 1.803-.294 2.513-.782l-.036.337c0 2.451 1.99 4.441 4.441 4.441s4.44-1.99 4.44-4.441l-.036-.337a4.396 4.396 0 0 0 2.514.782c2.451 0 4.44-1.99 4.44-4.441a4.418 4.418 0 0 0-2.54-3.997 4.434 4.434 0 0 0 2.54-3.997 4.441 4.441 0 0 0-6.954-3.659l.037-.337a4.441 4.441 0 0 0-8.881 0l.036.337a4.392 4.392 0 0 0-2.513-.781 4.442 4.442 0 0 0-4.44 4.44 4.42 4.42 0 0 0 2.54 3.997 4.42 4.42 0 0 0-2.541 3.997zM24 12.343a4.441 4.441 0 0 1 4.44 4.44 4.441 4.441 0 0 1-8.881 0c0-2.451 1.99-4.44 4.441-4.44zM8.014 25.664c0 8.827 7.158 15.986 15.986 15.986 0-8.828-7.158-15.986-15.986-15.986z"/></symbol><symbol id="icon-feature-gift" viewBox="239.66 239.76 32.67 32.49"><path fill="#63d1bb" d="M242.56 272.24h12.5v-13.9h-12.5v13.9zm28.18-23.62h-7.33c.52-.26.98-.55 1.4-.84 1.58-1.14 2.42-2.57 2.41-4 0-1.17-.55-2.2-1.36-2.9a4.58 4.58 0 0 0-3.01-1.12c-1.22 0-2.35.42-3.32 1.07-1.46.97-2.6 2.45-3.43 4.06l-.11.24c-.3-.62-.65-1.23-1.04-1.8a9.66 9.66 0 0 0-2.5-2.5 6 6 0 0 0-3.32-1.07 4.65 4.65 0 0 0-4.57 4.43c0 .73.21 1.5.65 2.18a6.55 6.55 0 0 0 2.63 2.25h-6.58c-.88 0-1.6.71-1.6 1.6v5.89h15.4v-7.49h1.87v7.49h15.4v-5.9c0-.88-.7-1.59-1.59-1.59m-22.36-2.34c-.62-.39-1-.78-1.22-1.13-.22-.36-.3-.66-.3-.96 0-.5.25-1.05.7-1.46a2.37 2.37 0 0 1 1.56-.67h.01c.69 0 1.37.23 2.05.68a8.36 8.36 0 0 1 2.64 3.19c.34.67.61 1.39.79 2.08-3.08-.32-5.08-1-6.23-1.73m10.54-1.62a7.37 7.37 0 0 1 1.88-1.92 3.69 3.69 0 0 1 2.05-.68c.58 0 1.12.22 1.5.55.38.33.57.74.57 1.17 0 .51-.27 1.26-1.46 2.13-1.14.83-3.1 1.67-6.13 2.27.29-1.2.85-2.48 1.59-3.52m-1.98 27.58h12.5v-13.9h-12.5v13.9z"/></symbol><symbol id="icon-feature-heart" viewBox="47.475 50.071 33.05 27.857"><path fill="#63d1bb" d="M80.525 58.808a8.736 8.736 0 0 0-8.736-8.736A8.727 8.727 0 0 0 64 54.865a8.727 8.727 0 0 0-7.789-4.793 8.736 8.736 0 0 0-8.736 8.736c0 9.127 14.657 19.121 16.525 19.121 1.869 0 16.525-9.95 16.525-19.121z"/></symbol><symbol id="icon-feature-money" viewBox="46.212 56.834 46.575 27.332"><path fill="#63d1bb" d="M88.882 56.834H50.116a3.905 3.905 0 0 0-3.904 3.905V80.26a3.905 3.905 0 0 0 3.904 3.905h38.766a3.906 3.906 0 0 0 3.905-3.905V60.739a3.906 3.906 0 0 0-3.905-3.905zm-39.647 24.95V59.551h40.202v22.233H49.235z"/><path fill="#63d1bb" d="M53.14 77.88h32.395V63.456H53.14V77.88zM69.5 65.354a5.315 5.315 0 1 1 0 10.63 5.315 5.315 0 0 1 0-10.63z"/></symbol><symbol id="icon-feature-rocket" viewBox="612.53 500.39 54.16 23.18"><path fill="#63d1bb" d="M652.84 506.1a48.11 48.11 0 0 0-12.35-1.67c-2.9 0-5.46.25-7.71.63l-6.79-4.67h-13.46l5.82 6.19h8.44c-4.58 1.6-6.76 3.51-6.76 3.51v3.78s2.32 1.91 6.94 3.52h-8.63l-5.8 6.18h13.45l6.81-4.7c2.27.4 4.83.66 7.69.66 4.52 0 8.7-.7 12.36-1.67a10.62 10.62 0 0 1-1.92-5.88c0-2.14.74-4.1 1.91-5.88zm3.43 1.03c-1.29 1.6-1.97 3.25-1.97 4.84 0 1.6.68 3.24 1.97 4.85 6.4-2.16 10.42-4.84 10.42-4.84s-4.02-2.68-10.42-4.85z"/></symbol><symbol id="icon-flag" viewBox="-11.34 -28.346 46.68 81.691"><path fill="#63D1BB" d="M-3.561-24.455v38.9l38.9-19.451-38.9-19.449zm-7.779 77.801v-81.691h3.805v81.691h-3.805z"/><path fill="#231F20" d="M-11.34-28.346h3.805v81.691h-3.805z"/></symbol><symbol id="icon-htmlacademy" viewBox="0 0 60 60"><path d="M30 5L10 7v36l20 12 20-12V7L30 5zm17 37L30 52 13 42V27l17 10v2l-12-7v2l12 7v2l-12-7v2l12 7 12-8v-7l5-3v15zm0-17l-5 3-2 1-10-6v2l9 5h-1l-1 1-7-5v2l6 4h-2l-4-2v2l3 1-3 2-17-10 17-10 17 10zm0-2L30 13 13 23V9l17-1 17 1v14z"/></symbol><symbol id="icon-insta" viewBox="53.12 53.19 21.77 21.33"><path d="M74.88 65.34c-.01-2.4-.34-4.8-.3-7.14-.02-.79-.09-1.53-.15-2.28-.1-.3-.12-.7-.16-1.06-.26-.17-.22-.64-.45-.83-.42-.24-1.2-.12-1.75-.22-.65-.03-1.25-.12-1.9-.16-1.93-.1-3.97-.07-6-.07-2 0-3.94-.15-5.69-.38h-2.2c-.1 0-.1.1-.22.07-.6.04-1.08.2-1.6.3a2.8 2.8 0 0 1-.68.31c-.14.2-.52.15-.61.38-.19.21.19.45 0 .6v.92c.17.13.03.58.08.83v.99c-.02 1.28.13 2.4.07 3.72.47 2.76.38 6.54.08 9.41.15.58.36 1.1.45 1.75.26.48.34 1.13.69 1.52.5.2 1.23.18 1.9.23.38.1.66.3 1.13.3 2.85-.21 5.5-.16 8.43-.23 2.7.24 5.8.19 8.28-.23.19-.13.12-.53.22-.76-.05-.38.21-.45.23-.76.13-2.4.16-4.79.15-7.21zM61.9 59.1c.76-.15 1.48-.34 2.43-.3.7.07 1.29.28 1.9.45.11.19-.25.55.15.69v.07c.06.02.15 0 .15.08.44.03.8.17 1.06.38.45.05.54.47 1.14.3-.1.21-.08.52-.07.83.32 1.19.47 2.81.3 4.25-.17.17-.22.45-.3.69-.32.32-.49.78-.84 1.06-.1.24-.25.4-.45.53-.12.22-.21.46-.46.53-.3.17-.58.01-.84-.07-.44.16-.9.3-1.21.6-.82-.1-1.65-.17-2.43-.3a1.94 1.94 0 0 0-.84-.3 2 2 0 0 0-.83-.46c-.1-.13-.34-.12-.46-.23-.2-.03-.23-.23-.45-.23-.12-.41-.45-.62-.53-1.06-.23-.33-.31-.8-.46-1.22-.04-1.43.1-2.69.38-3.8.35-.58.78-1.08 1.14-1.66.25.02.36-.1.38-.3.3.05.43-.08.68-.08.26 0 .27-.3.46-.45zm-1.67-2.73c-.12-.27-.07-.7-.08-1.06 0-.29.28-.28.3-.54 0-.07-.09-.05-.14-.07.12-.15.7-.1.83 0 .13.54-.35.45-.53.68.01.17.32.03.46.08.02.85-.06 1.5 0 2.2h-.46c0 .23.23.23.46.23-.06.28.09.36.07.6-.23.16-.72.05-1.06.08-.1-.6.23-1.38.15-2.2zm-.68-1.6c.08 0 .13.02.15.08.18.25 0 .68-.08.91-.17-.18-.02-.68-.07-.99zm.15 1.83c-.13-.07-.17-.24-.15-.46.13.07.16.24.15.46zm0 1.36c-.06.14-.08-.04-.08-.15.06-.14.08.05.08.15zm-.15.23c.17-.02.08.22.22.23 0 .2-.28.18-.38.07.04-.1.12-.19.16-.3zm-2.36-1.22c0-.1.02-.2-.07-.22-.08-.74.13-1.42 0-1.98.25-.15.77-.04 1.14-.07v1.14c-.1.06-.2.1-.38.07-.06.28.32.13.38.3 0 .86-.06 1.78.15 2.44-.57-.06-.9.1-1.44.07.1-.61-.02-1.43.53-1.6-.02-.13-.26-.04-.3-.15zm-.53 0c-.2.03-.22-.53-.08-.6.33 0 .25.5.08.6zm-.15 1c.08-.32.03-.31.07-.69.23.01.26.77-.07.68zm.23-2.06c-.27.06-.28-.26-.16-.38.27-.05.28.27.16.38zm0-1.14c.03.16-.06.2-.08.3-.17.03-.08-.21-.23-.22.03-.1.2-.06.3-.08zm-.23 3.73c.15-.04.1.34-.08.22a.36.36 0 0 0 .08-.22zm-.68-3.73c.02.26-.44.32-.38 0h.38zm-1 .08c-.03.22-.32.18-.37.38-.22-.17.08-.47.38-.38zm-.45.76c.23-.2.45-.41.69-.6-.02-.13.07-.14.07-.24h.23c.1.38-.26.3-.3.53.02.13-.08.14-.08.23.02.34.12.59.08.99-.27 0-.28.28-.61.23.02-.43-.13-.68-.08-1.14zm.08 3.26V57.3l.6-.53c.3.49.19 1.39.46 1.9-.27.15-.75.1-1.06.22zm18.22 11.09c-.1.95-.16 1.97-.38 2.8-2.89.13-6.02.01-8.88.16-.2.04-.27-.03-.23-.23-.25 0-.26.25-.53.23.2-.34.44-.9.15-1.3-.8.02-.8.83-1.14 1.3-.68-.05-1.14.13-1.82.07.18-.7.75-1.02.9-1.74-.39-.55-.98.14-1.2.46-.2.48-.56.8-.76 1.29h-.99c.24-.47.49-.93.76-1.37.17-.51.62-.74.68-1.37-.16-.28-.42-.03-.68 0-.12.18-.27.34-.38.53-.23.38-.5.72-.69 1.14-.18.21-.33 0-.53.23-.38.27-.58.74-.98.99-.18-.06.04-.36.15-.38.04-.18-.1-.55.07-.61.07-.37.22-.65.38-.91.12-.74.52-1.2.69-1.9-.56.1-.68.65-.99.99-.21.44-.54.77-.68 1.29-.18-.13-.03-.58-.08-.84.12-.58.3-1.11.38-1.74.13-.22.17-.54.23-.84.17-.2.04-.6-.08-.76-.22.03-.37.14-.45.3-.2-.02-.2.51-.3.31-.05-2.59-.46-4.81-.46-7.44.02-.33-.19-.42-.23-.68 1.63.03 3.12.09 4.78.23-.09.14-.2.25-.3.38-.15.07-.23.17-.38.3-.6 1.65-.98 3.98-.6 6.15.22.58.58 1.03.98 1.44.9.49 1.63 1.15 2.5 1.67 1.7.36 3.84.37 5.55 0 .23-.12.48-.22.68-.38 1.37-1.24 2.75-2.46 2.96-4.86v-1.36c-.2-1.6-.69-2.9-1.75-3.65.34-.22 1.1.05 1.67.08h.69c.4-.03.93-.06 1.44 0 .15.19.11.54.23.76-.06 1.68-.2 3.3-.15 5.09.1.45.12.98.23 1.44-.1.97-.24 1.89-.46 2.73zm.38-11.16c-.64-.12-1.23-.29-1.9-.38.07-.33.8-.01.99-.23.38-.22.3-.92.3-1.5.03-.36.12-.65.08-1.07-.4-.95-1.78-.42-2.89-.46-.22.72-.47 1.8-.3 2.66.17.49 1.02.3 1.52.46-.14.33-.69.05-.99.07-.3-.08-.7-.05-.99-.15-2.28.08-4.28 0-6.52.15.11-1.25.06-2.46-.08-3.64h3.11c-.34.36-.91.5-1.29.83-.44.25-.86.5-1.14.91.25.14.54-.24.76-.38.36-.07.48-.38.84-.45.42-.44 1.1-.63 1.67-.91.37-.02.7.01.98.07 1.29.01 2.46.13 3.8.08.61.15 1.45.07 1.97.3.11.3.23.58.3.92.02.98-.14 1.81-.22 2.72zm-5.85-3.72c.11-.05 0-.1 0 0zm0 0c-.52.15-1.01.35-1.36.68.48-.2 1.06-.3 1.36-.68zm1.07.6c.1-.04-.01-.09 0 0zm-1.75.92c.73-.16 1.18-.6 1.75-.91-.44.01-.6.31-1 .37-.2.22-.6.26-.75.54zm-.68-.84c-.11.05 0 .1 0 0zm-.69.6c.11-.04 0-.08 0 0zm-.07.08c.06.02.07-.03.07-.07-.06-.02-.07.03-.07.07zm-.08.08c.07.01.07-.03.08-.08-.07 0-.07.03-.08.08zm-.83.6c.34-.13.61-.34.83-.6-.35.13-.61.35-.83.6zm2.27 1c.54-.05.75-.42 1.22-.54.28-.3.78-.38.99-.76-.56.03-.77.4-1.22.54-.28.3-.75.4-.99.76zm-2.27-1c-.32-.07-.02.23 0 0zm-.54.39c.03.02.12-.04.08-.08-.02-.02-.12.04-.07.08zm2.81.6c-.1.05.01.1 0 0zm-1.14 1.83c-.22-.24-.67-.24-.98-.38-.7-.04-1.23.09-1.75.23l-.9.45c-.27.17-.45.42-.77.53-.2.23-.35.51-.68.6 0 .23-.18.29-.3.39-.1.11-.1.31-.23.38-.01.12.03.29-.08.3.1 1.51.3 2.95.68 4.18.3.62.98.84 1.45 1.29.58.3 1.32.44 2.12.53.28-.05.55-.1.91-.08 1.21-.2 2.1-.73 2.81-1.44.1-.28.25-.5.46-.68-.26-.67.3-1.1.45-1.6 0-1.33-.2-2.47-.6-3.4-.26-.58-.92-.76-1.37-1.14-.06-.02-.15 0-.15-.08-.27-.14-.73-.24-1.07-.08zm-3.41 4.32c-.11-.06-.11-.24-.15-.38.25-.07.12.24.15.38zm.08.3c.04-.1.07 0 .07.08-.04.12-.08 0-.07-.07zm.45-2.04c.02-.09.08-.05.08 0-.02.08-.08.04-.08 0zm1.67-2.13c-.2.26.04.58.08.84-.3-.04-.58-.89-.08-.84zm.38 3.95c-.04-.04.06-.1.08-.08.04.04-.06.1-.08.08zm.76 2.88c.03-.1.07.01.15 0-.02.1-.15.08-.15 0zm2.2-2.58c-.23-.05-.14.21-.38.16.07-.16.12-.34.23-.46.13.02.17.13.15.3zm-1.14-3.8c.21.13.44.22.6.39.1.22.25.36.39.53.06.77.18 1.49.15 2.35-.26.1-.44.27-.68.38-.78 0-1.36-.21-1.9-.45l-.53-.76v-1.06c.17-.19.32-.4.45-.61.23-.13.51-.2.46-.6-.04-.07-.08-.13-.08-.24.16.05.25.16.38.23.32.02.41-.2.76-.15z"/></symbol><symbol id="icon-interior" viewBox="-259.4 -19.68 40.22 62.41"><path d="M-244.23 18.28c-.28.97-.24 2.2.03 3.64.5 2.64 1.69 6.04 2.36 9.67h5.06c.7-3.64 1.95-7.05 2.47-9.68.29-1.45.33-2.66.04-3.62-.27-.9-.89-1.62-2.02-2.3h-6c-1.07.68-1.67 1.39-1.94 2.3zm11.83 20h-13.8c-1.29 0-2.3.97-2.3 2.23v2.23h18.4V40.5c0-1.26-1-2.23-2.3-2.23zm7.14-55.73H-237a2.25 2.25 0 0 0-2.3-2.23c-1.29 0-2.3.99-2.3 2.23h-11.74l-6.07 25.52c.79-.46 1.58-1 2.63-1 1.36 0 2.24.83 2.92 1.38.68.56 1.16.85 1.45.85.3 0 .77-.28 1.45-.83.68-.55 1.56-1.36 2.92-1.36 1.34 0 2.23.8 2.91 1.35.69.55 1.17.84 1.46.84.14 0 .33-.07.58-.21.24-.14.53-.35.87-.63.5-.4 1.14-.96 1.99-1.22.28-.08.59-.13.93-.13 1.34 0 2.24.8 2.92 1.35.68.55 1.16.84 1.45.84.29 0 .76-.3 1.44-.85.69-.55 1.57-1.36 2.93-1.36 1.35 0 2.24.81 2.92 1.37.34.27.63.49.87.63s.43.21.57.21c.3 0 .77-.3 1.45-.85.68-.56 1.56-1.39 2.93-1.39 1.04 0 1.83.54 2.63 1l-6.08-25.5zm-10.62 51.27h-6.87a1.1 1.1 0 0 0-1.15 1.11c0 .64.5 1.12 1.15 1.12h6.9a1.1 1.1 0 0 0 1.15-1.11c0-.64-.49-1.12-1.15-1.12h-.03zm-3.42-24.48c-.14 0-.33.07-.57.2-.16.1-.37.27-.57.42v3.73h2.3V9.96c-.51-.38-.91-.62-1.16-.62z"/></symbol><symbol id="icon-left-arrow"><path d="M50 11H7.66l8.17-8.17L13.01 0 0 13l13 13 2.83-2.82L7.66 15H50z"/></symbol><symbol id="icon-logo-footer"><path d="M19.14 21.5c-.09-2.69-.51-5.35-.48-8.04.03-2.17.39-4.41-.36-6.5l.14-.7c.2-1.05-3.27-.5-3.81.46-.35.28-.52.61-.38.96l.1.26a78.3 78.3 0 0 1-2.62 9.4c-.4 1.2-.88 2.36-1.3 3.54-.58-1.1-1.16-2.2-1.64-3.38-1.37-3.43-2.61-6.9-4.28-10.2.19-1.53-3.2-1.37-3.88.03-.8 1.7-.7 3.4-.44 5.21.3 2.05.36 4.05.38 6.12.05 3.97.36 7.94.42 11.91-.36.4-.46.89-.1 1.38.17.22.37.38.58.55.9.72 3.5.1 3.5-1.27-.02-4.13-.32-8.24-.43-12.36l-.02-1.21.17.43c.64 1.6 1.31 3.17 2.19 4.66.86 1.48 1.3 3.06 1.8 4.67-.19.22-.3.47-.23.71-.04.18.07.3.25.36.64.55 1.84.28 2.5 0 .3-.13.57-.27.83-.43.35-.21.89-.68.73-1.16l-.09-.28c.47-1.27.71-2.59.97-3.93.27-1.42.78-2.78 1.3-4.13l.15 1.86c.2 2.55.03 5.07 0 7.62 0 .85.06 1.63.23 2.46.06.35.36 1.81.28 1.89-.61.56-.44 1.26.38 1.44.92.2 2.08-.1 2.77-.75 1.2-1.1.63-2.84.36-4.24-.45-2.34.1-4.96.03-7.34zm8.36.67c-.08-1.99-.77-3.86-.78-5.87 0-2.3.19-4.6-.15-6.89-.1-.72-4.06.1-3.92 1.05.31 2.11.2 4.23.16 6.36-.04 2.04.47 3.9.73 5.9.27 2.05-.08 4.16.15 6.21.11.97.75 2.75.09 3.58-.42.54 1.47.35 1.55.33.77-.14 1.8-.4 2.3-1.04.66-.83.2-2.42.06-3.36-.32-2.05-.11-4.2-.2-6.27zm16.33-3.32c-2.06-2.78-5.9-.78-8.56-1.54-1.38-.4-1.4-2.27-1.4-3.4 0-1.42-.1-2.73-.27-4.14-.12-1.05-.02-2.12.75-2.9.14-.15.86-.34.8-.34.36-.07.68-.08 1.08-.1 1.54-.06 4.6.23 4.01 2.49-.26 1 3.6.43 3.88-.64 1.21-4.6-7.28-3.72-9.68-3.08-2.21.59-4.65 1.85-4.78 4.4-.06 1.22.27 2.38.33 3.59.06 1.39-.2 2.77.28 4.12 1.09 2.98 5.52 1.57 7.78 1.74 3.85.29 2.7 5.47 2.75 7.88.03 1.3 1.18 3.43.21 4.51-.6.66-1.98.7-2.8.77-.8.07-2.2.31-2.73-.46-1-1.42.09-3.8-.12-5.43-.13-.92-4.07-.1-3.92 1.05.34 2.63-1.4 6.15 2.4 6.6 2.44.29 5.2-.16 7.5-.93 1.2-.4 2.3-.94 3.24-1.8 1.04-.93.7-2.34.42-3.54-.68-2.92.73-6.28-1.17-8.85zm17.33-.19c-.13-3.78-.7-7.51-.71-11.3 0-1.97-3.96-1.3-3.96.35.02 3.6.5 7.16.68 10.76l.02.22c-1.95-.02-3.9.18-5.86.25.2-4.63-.6-9.23-.43-13.86.02-.58-3.88-.09-3.92 1.05-.17 4.48.59 8.92.45 13.4-.06 2.13-.24 4.26-.25 6.4-.01 1.09.17 2.18.32 3.26.15 1 .49 2.33.19 3.32-.24.77 3.56.29 3.86-.7.54-1.78-.22-4.04-.4-5.84-.18-1.72-.05-3.5.08-5.25 2.03-.13 4.06-.3 6.08 0 .09 1.37.2 2.75.32 4.13.1 1.15.18 2.31.2 3.47.01 1.02.14 2.5-.23 3.46-.77 2.06 3.15 1.9 3.73.37.7-1.87.5-4.2.38-6.17-.15-2.44-.48-4.87-.55-7.32zm16.93 4.48c-.94-2.76-2.38-5.18-3.62-7.8 1-1.95 2.02-3.9 2.93-5.89.83-1.8 1.45-3.82 3.08-5.1.58-.44.55-.89-.25-.94-.88-.06-2.07.19-2.77.74a10.74 10.74 0 0 0-3.2 4.27 160.3 160.3 0 0 1-2.92 6.07l-.22.45c-.5.31-.79.76-.64 1.26-.8 1.56-1.6 3.12-2.5 4.61-.3-5.53-.95-11.06-1.15-16.6-.04-1.27-3.97-.48-3.92 1.05.25 6.87 1.22 13.72 1.29 20.59l-.05.05c-.3.3-.19.5.05.6 0 1.75-.05 3.5-.2 5.25-.48.75.46 1.14 1.08 1.14h.1c.73 0 2.62-.35 2.71-1.36.2-2.1.25-4.2.24-6.3a31.33 31.33 0 0 0 4.05-5.63 29.45 29.45 0 0 1 1.99 4.59c.86 2.74 2.3 5.26 3.13 8.01.54 1.8 4.46.74 3.92-1.05-.83-2.75-2.2-5.3-3.13-8.01zm23.5-4.64c-.21-.83-1.37-.85-2.27-.77l-.04-1c-.12-2.67-.16-5.38-.39-8.04-.2-2.45-1.58-3.33-3.97-3.24-2.42.09-5.23.52-7.48 1.4-2.61 1.01-4.06 2.93-4.56 5.68-.55 3.01.24 6.22.37 9.25.16 3.5.07 7.01.06 10.52 0 .57 3.92.03 3.92-1.05 0-2.78.04-5.55 0-8.33a52.2 52.2 0 0 0-.1-2.44c1.37-.6 3.69 0 5.05.14 1.1.1 2.17-.17 3.24-.3.02 2.32.1 4.64.2 6.95.05 1.18.48 3.53-.35 4.5-.44.53 1.48.35 1.56.34.79-.15 1.76-.4 2.3-1.04.95-1.12.45-3.8.4-5.13-.08-1.9-.1-3.82-.14-5.74 1.15-.14 2.42-.85 2.2-1.7zm-14.62-.15c-.1-1.24-.22-2.49-.3-3.74-.16-2.33.12-5.59 2.29-7 .58-.38 1.67-.32 2.35-.44.97-.18 1.96-.39 2.83.2 1.21.8.91 3.65.91 4.86 0 2 .21 4 .31 6-.55.06-1.1.1-1.68.08-2.29-.05-4.54-.41-6.7.04zM24.1 6.7a3.16 3.16 0 0 0 1.48-.52l.26-.22c.52-.34.97-.83.73-1.36-.5-1.1-.42-2.23-.42-3.41 0-.96-.96-1.25-1.78-1.18-.72.06-2.17.58-2.17 1.52 0 1-.07 2.02.1 3-.04.1-.07.23-.1.35a.7.7 0 0 0 .14.59v.13l.02.34c.07.23.22.4.43.53.39.23.88.27 1.32.23z"/></symbol><symbol id="icon-logo-htmlacademy"><path d="M13.62.02L13.47 0 0 1.41v24.66l13.47 8.02L26.9 26.1l.05-.03V1.42L13.62.01zm11.4 12.1L13.49 5.34v-.1l-.08.05-.1-.06v.11L1.94 12.12V3.15l11.54-1.21 11.55 1.2v8.99zM13.4 6.8l11.52 6.71-4.48 2.64-7.09-4.22-.01 1.41 5.9 3.52-.86.5-5.03-2.99-.01 1.42 3.82 2.27-.78.52-3.03-1.78-.01 1.41 1.85 1.1-1.8 1.07-11.36-6.75L13.41 6.8zM1.93 15.13l11.4 6.79.02 1.04-7.94-4.73-.02 1.42 7.98 4.8.02 1.07-7.97-4.74-.01 1.41 8.02 4.83.04.02 8.15-4.87-.02-5.18 3.42-2.03v10.02l-11.55 6.87-11.54-6.87v-9.85z"/></symbol><symbol id="icon-mail"><path d="M28 5H4a4 4 0 0 0-4 4v13a4 4 0 0 0 4 4h24a4 4 0 0 0 4-4V9a4 4 0 0 0-4-4zM2 10.25l6.999 5.25L2 20.75v-10.5zM30 22c0 1.104-.898 2-2 2H4c-1.103 0-2-.896-2-2l7.832-5.875 4.368 3.277a3 3 0 0 0 3.599 0l4.369-3.277L30 22zm0-1.25l-7-5.25 7-5.25v10.5zm-12.801-2.148c-.35.263-.763.4-1.199.4s-.851-.139-1.2-.4L10.665 15.5l-.833-.625L2 9.001V9c0-1.103.897-2 2-2h24c1.102 0 2 .897 2 2l-12.801 9.602z"/></symbol><symbol id="icon-map-pin"><path fill="#FFF" d="M56.33 9.23c-12.89-12.3-33.77-12.3-46.66 0a30.48 30.48 0 0 0 0 44.54S32.99 75.6 32.99 100.8c0-25.2 23.34-47.03 23.34-47.03a30.48 30.48 0 0 0 0-44.54z"/><path fill="#6BC6B3" d="M47.04 45.52c-.64-3.28.13-6.95.02-10.28-.11-3.76-.71-7.49-.66-11.25.04-3.04.54-6.17-.5-9.09l.19-1c.27-1.46-4.58-.68-5.34.65-.48.4-.72.87-.52 1.34l.14.37c-.92 4.48-2.2 8.83-3.67 13.17-.56 1.67-1.24 3.3-1.81 4.95-.82-1.55-1.64-3.07-2.3-4.73-1.93-4.8-3.66-9.66-6-14.28.26-2.14-4.49-1.92-5.42.04-1.14 2.37-1 4.76-.62 7.3.42 2.86.5 5.67.53 8.55.07 5.57.5 11.12.58 16.69-.5.55-.64 1.23-.12 1.92.22.3.5.54.8.77 1.26 1.01 4.9.15 4.89-1.78-.02-5.77-.44-11.53-.59-17.3l-.03-1.7.24.62c.9 2.24 1.83 4.42 3.06 6.5 1.2 2.08 1.82 4.3 2.52 6.56-.27.3-.42.64-.33.99-.05.25.1.4.35.5.9.77 2.58.38 3.52 0 .4-.18.78-.37 1.15-.6.49-.3 1.24-.95 1.02-1.62l-.12-.4c.66-1.77 1-3.62 1.35-5.5.39-2 1.1-3.89 1.82-5.78l.22 2.6c.28 3.57.04 7.1 0 10.67 0 1.19.08 2.29.31 3.44.1.48.52 2.53.4 2.65-.86.79-.61 1.76.54 2a4.65 4.65 0 0 0 3.87-1.03c1.68-1.55.88-3.98.5-5.94z"/></symbol><symbol id="icon-menu-close"><path fill="#231F20" d="M20.51 1.41L19.1 0l-8.84 8.84L1.4 0 0 1.41l8.84 8.85L0 19.1l1.41 1.41 8.85-8.84 8.84 8.84 1.41-1.41-8.84-8.84z"/></symbol><symbol id="icon-menu-open"><path fill="#231F20" d="M0 0h19.96v2H0zm0 6h19.96v2H0zm0 6h19.96v2H0z"/></symbol><symbol id="icon-phone"><path d="M17.32 24.33h-1.11c-4.9-.58-8.5-2.85-11.11-5.77A19.4 19.4 0 0 1 0 6.82V5.46c.1-.92.54-1.55 1.07-2.09.65-.66 1.63-1.52 2.52-1.55a3.2 3.2 0 0 1 2.23 1.07c.39.53.6 1.59.78 2.37.18.8.6 1.95.48 2.72-.17 1.2-1.76 1.7-2.23 2.57a16.65 16.65 0 0 0 7.47 8.35c.85-.47 1.6-1.87 2.77-1.9.43 0 .97.22 1.4.35.48.14.9.32 1.32.48.7.27 1.95.62 2.37 1.21.44.61.68 1.61.58 2.23-.19 1.24-2.22 2.6-3.44 3.06zm-4.79-22.8c5.95 0 10.77 4.82 10.77 10.77h1.53c0-6.8-5.5-12.3-12.3-12.3v1.53z"/><path d="M12.53 9.33v1.55c.78 0 1.42.63 1.42 1.42h1.55a2.97 2.97 0 0 0-2.97-2.97zm0-3.08a6.05 6.05 0 0 1 6.06 6.05h1.58a7.64 7.64 0 0 0-7.64-7.64v1.59z"/></symbol><symbol id="icon-play" viewBox="247.3 382.56 100.68 76.89"><path fill="#63D1BB" d="M344.25 400.7s-.92-7-3.78-10.07c-3.63-4.04-7.67-4.07-9.54-4.3-13.33-1.02-33.3-1.02-33.3-1.02h-.06s-19.97 0-33.3 1.02c-1.87.23-5.9.26-9.54 4.3-2.84 3.1-3.79 10.08-3.79 10.08s-.9 8.2-.9 16.42v7.7c0 8.2.96 16.42.96 16.42s.92 7 3.78 10.08c3.63 4.04 8.36 3.91 10.49 4.35 7.62.76 32.35 1.02 32.35 1.02s20-.03 33.33-1.05c1.87-.23 5.91-.25 9.54-4.3 2.84-3.07 3.79-10.08 3.79-10.08s.95-8.2.95-16.42v-7.7c-.03-8.23-.98-16.44-.98-16.44z"/><path fill="#FFF" d="M297.61 459.45h-.01c-1.02-.01-24.95-.27-32.6-1.04l-.15-.01-.13-.03c-.27-.06-.67-.1-1.13-.17-2.5-.32-7.16-.93-10.84-5.02-3.35-3.61-4.37-10.77-4.48-11.57v-.05c-.05-.34-.97-8.46-.97-16.73v-7.7c0-8.27.87-16.38.91-16.72l.01-.07c.1-.8 1.16-7.93 4.47-11.56 4-4.44 8.53-4.9 10.72-5.12l.52-.06.13-.01c13.28-1.02 33.31-1.03 33.51-1.03h.06c.2 0 20.23.01 33.51 1.03l.13.01.52.06c2.18.22 6.71.68 10.7 5.11 3.36 3.62 4.39 10.77 4.5 11.58v.04c.04.34.96 8.46.99 16.76v7.7c0 8.28-.93 16.4-.97 16.74v.05c-.11.8-1.16 7.96-4.48 11.56-4 4.44-8.53 4.9-10.71 5.12l-.53.06-.13.01c-13.27 1.02-33.33 1.06-33.53 1.06h-.02zm-31.94-6.5c7.48.73 31.22 1 31.97 1 .66 0 20.13-.05 33.05-1.04l.58-.06c1.83-.19 4.6-.47 7.18-3.33l.03-.03c1.82-1.98 2.85-6.93 3.07-8.55.06-.52.93-8.36.93-16.08v-7.7a167 167 0 0 0-.95-16.11c-.32-2.38-1.44-6.8-3.07-8.54l-.03-.04c-2.58-2.87-5.36-3.15-7.19-3.34l-.58-.06c-13.07-1-32.83-1-33.03-1h-.05c-.2 0-19.97 0-33.04 1l-.58.06c-1.83.2-4.6.47-7.18 3.34l-.02.02c-1.83 2-2.86 6.93-3.08 8.55-.07.6-.88 8.4-.88 16.1v7.7c0 7.74.87 15.59.93 16.07.32 2.39 1.43 6.8 3.06 8.54l.04.04c2.32 2.59 5.3 2.98 7.48 3.26.48.06.94.12 1.36.2z"/><path fill="#FFF" d="M285.73 403.14v35.7L315.48 421z"/></symbol><symbol id="icon-right-arrow"><path d="M0 11h42.34l-8.17-8.17L36.99 0 50 13 37 26l-2.83-2.82L42.34 15H0z"/></symbol><symbol id="icon-search" viewBox="-0.8 -0.8 17.6 17.6"><path d="M16.47 14.93l-3.42-3.42a7.7 7.7 0 1 0-1.54 1.54l3.42 3.42c.2.2.42.33.77.33.6 0 1.1-.5 1.1-1.1 0-.24-.06-.5-.33-.77zM1.4 6.9a5.5 5.5 0 1 1 11 0 5.5 5.5 0 0 1-11 0z"/></symbol><symbol id="icon-tick"><path d="M32.666 1.414L31.252 0 11.338 19.914 1.414 9.989 0 11.403l9.924 9.925 1.414 1.414h.001l1.414-1.414h-.001z"/></symbol><symbol id="icon-toy" viewBox="226 226.19 60 59.62"><path d="M226 269.87l27.44 15.93v-23.34L226 246.52v23.35zm51.35-31.24v2.45c0 1.82-3.46 3.29-7.73 3.29-4.27 0-7.73-1.47-7.73-3.29v-4.06h.02c.26 1.72 3.6 3.07 7.7 3.07 4.28 0 7.73-1.47 7.73-3.28 0-1.82-3.45-3.29-7.72-3.29-.34 0-.68.01-1 .03l-4.98-2.89v3.09c0 1.82-3.46 3.29-7.72 3.29-2.69 0-5.05-.58-6.44-1.47-.2-.2-.44-.4-.73-.58a1.8 1.8 0 0 1-.56-1.24v-2.99l-4.81 2.8c-.35-.02-.7-.04-1.06-.04-4.26 0-7.72 1.47-7.72 3.3 0 1.8 3.46 3.28 7.72 3.28 4.1 0 7.45-1.36 7.71-3.08h.02v4.06c0 1.82-3.45 3.3-7.73 3.3-4.26 0-7.72-1.48-7.72-3.3v-2.42l-5.95 3.45 27.53 15.99 27.35-15.88-6.18-3.6zm-13.65 10.16c0 1.82-3.46 3.29-7.72 3.29-4.27 0-7.73-1.47-7.73-3.29v-4.06h.02c.26 1.72 3.6 3.08 7.7 3.08s7.45-1.36 7.71-3.08h.02v4.06zm-5.14 13.88v23.14L286 269.87v-23.14l-27.44 15.94zm-2.64-29.9c4.27 0 7.72-1.48 7.72-3.3 0-1.8-3.45-3.28-7.72-3.28s-7.73 1.47-7.73 3.29c0 1.81 3.46 3.28 7.73 3.28"/></symbol><symbol id="icon-twitter" viewBox="52.25 53.77 23.49 20.17"><path d="M75.7 57.85c-.22-.36-.9-.27-1.4-.37h-1.11c.14-.35.34-.64.52-.96.05-.44.25-.73.22-1.26.13-.17.18-.42.3-.6.1-.14.24-.47.07-.66-.05-.22-.3-.25-.6-.22a.51.51 0 0 0-.21.15c-.45.43-.78 1.01-1.27 1.4 0 .01-.06 0-.07 0-.09.01-.03.05-.07.08l-.37.22c-.29.18-.55.45-.9.52a6.07 6.07 0 0 0-1.85-.37c-1.15.1-2.3.22-3.03.74-.92.35-1.48 1.04-2.15 1.63-.05.32-.35.4-.37.74 0 .05-.02.1-.08.08.05.24-.05.34-.07.52 0 .13.2.43 0 .52-.82-.12-1.49-.63-2.15-.97-.72-.36-1.47-.6-2.07-1.1a6.03 6.03 0 0 1-1.78-1.34c-.21-.32-.54-.5-.67-.9-.38-.16-.17-.9-.74-.88-.31-.05-.34.2-.44.37-.07.22-.36.23-.37.52 0 .04-.02.08-.08.07-.17 1.1-.53 2-.52 3.26.13.42.35.74.6 1.04-.42.05-.72.22-.9.52-.05 1.07.38 1.65.75 2.3.13.38.35.68.59.96.02.23.2.29.3.44.02.1.12.13.15.23-.04.1.28.18.07.22-.41.13-1.02.07-1.26.37-.11.28-.11.83 0 1.11.03.24.28.26.3.52.5.42 1.08.75 1.63 1.11.57.17 1.2.27 1.85.37-.1.34-.34.55-.6.74-.78.38-1.84.48-2.74.74-.55.04-.95.23-1.55.22-.34.13-.86.08-1.12.23-.12.07-.1.1-.22.22-.13.41.11.74.45.89 0 .25.22.27.37.37.09.18.25.29.44.37.55.47 1.27.76 1.93 1.11.83.18 1.65.38 2.52.52.9.12 1.9.12 2.82.22h.96c.51.13 1.23.06 1.85.08.1-.1.32-.08.52-.08.52-.27 1.2-.38 1.63-.74.58-.24 1-.64 1.56-.89.87-.76 1.94-1.32 2.52-2.37.2-.19.35-.44.44-.74.27-.15.39-.45.6-.66.4-.41.7-.93 1.03-1.4.32-.5.58-1.06.9-1.56-.02-.4.3-.48.29-.89.2-.23.18-.66.37-.88-.03-.26.03-.42.07-.6.05-1.28-.04-2.42-.3-3.4.6-.16 1.19-.3 1.64-.6.52-.2 1-.6.8-1.28zm-3.4 4.08c-.15.86-.62 1.41-1.04 2 .06.38-.1.54-.07.9a4.3 4.3 0 0 0-.37 1.03c-.2.27-.34.6-.52.89-.37.55-.78 1.05-1.19 1.56-.38.56-.91.96-1.33 1.48-.42.49-.94.88-1.41 1.33-.47.17-.89.4-1.26.67-.23.09-.46.18-.67.3-.17.14-.5.14-.66.28a24 24 0 0 1-3.56.15c-1.03-.1-2.11-.16-3.04-.37-.92-.19-1.51-.71-2.3-1.04.16-.24.64-.15.97-.22.03-.16.4 0 .44-.15.26.06.29-.1.52-.07.56-.2 1.23-.3 1.7-.6.29-.13.41-.42.67-.58.04-.2.1-.34.23-.45.04-.27.2-.44.14-.81.11-.21.3-.35.3-.67-.07-.15-.13-.32-.3-.37-.02-.2-.37-.07-.44-.22-.26.03-.42-.03-.6-.08-.15-.04-.48.1-.51-.07-.84-.02-1.3-.43-1.86-.74.44-.26 1.04-.35 1.34-.74.51-.08 1.06-.13 1.1-.67 0-.72-.76-.66-1.32-.81-.78-.66-1.2-1.68-1.78-2.52.24-.16.56-.23.74-.45.45.06.54-.25.67-.52.01-.49-.34-.6-.6-.81a3.49 3.49 0 0 1-.66-.74c0-.82-.03-1.65.07-2.37.06-.02.07.02.07.07.23.44.56.77.82 1.19.53.35.92.85 1.55 1.1.46.42 1.11.63 1.56 1.05.6.26 1.16.57 1.7.88.67.2 1.06.68 2 .6l.6-.3c.26-.46-.06-1.08.15-1.63.25-.66.8-1.03 1.26-1.48.29-.16.55-.34.81-.52.35-.1.68-.22.97-.37.37-.02.7-.08 1.03-.15h1.26c.25.05.48.12.74.15.21.14.38.31.67.37.79.7 1.27 1.7 1.4 3.04-.12.48.06.87 0 1.48zm.3-5.63c-.14.34-.24.7-.6.81-.02-.1-.12-.12-.15-.22 0-.2.21-.18.3-.3.16-.08.24-.24.44-.3 0-.08.11-.04 0 0zm-5.49 3.04c.16.13.28.3.52.37.1.22.31.33.6.37.04-.15.34-.05.36-.22.18-.03.17-.23.3-.3-.02-.55-.13-1-.37-1.33-.76-.43-1.68.04-1.41 1.1z"/></symbol><symbol id="icon-video"><path fill="#63d1bb" d="M26 15l6-4v16l-6-4v-8zm-2 0v8a4 4 0 0 1-4 4H4a4 4 0 0 1-4-4v-8a4 4 0 0 1 4-4h10c0-1.1.9-2 2-2V7H5a1 1 0 1 1 0-2h12a1 1 0 0 1 1 1v3a2 2 0 0 1 2 2 4 4 0 0 1 4 4zm-12 0H4v8h8v-8zm8 1a1 1 0 0 0-1-1h-4a1 1 0 1 0 0 2h4a1 1 0 0 0 1-1z"/></symbol></svg>